<svg xmlns="http://www.w3.org/2000/svg" width="512" height="512" viewBox="0 0 682.667 682.667" style="enable-background:new 0 0 512 512" xml:space="preserve"><defs><clipPath id="b" clipPathUnits="userSpaceOnUse"><path d="M0 512h512V0H0Z" fill="#b68632" data-original="#000000"/></clipPath></defs><mask id="a"><rect width="100%" height="100%" fill="#fff" data-original="#ffffff"/></mask><g mask="url(#a)"><g clip-path="url(#b)" transform="matrix(1.33333 0 0 -1.33333 0 682.667)" fill="none" stroke="#b68632" stroke-width="15" stroke-linecap="round" stroke-linejoin="round" stroke-miterlimit="10"><path d="M0 0c0-17.708-14.356-32.064-32.065-32.064-17.708 0-32.064 14.356-32.064 32.064 0 17.709 14.356 32.064 32.064 32.064C-14.356 32.064 0 17.709 0 0Z" style="stroke-width:15;stroke-linecap:round;stroke-linejoin:round;stroke-miterlimit:10;stroke-dasharray:none;stroke-opacity:1" transform="translate(175.839 336.161)" data-original="#000000"/><path d="M0 0c0-17.708-14.355-32.064-32.064-32.064S-64.129-17.708-64.129 0c0 17.709 14.356 32.064 32.065 32.064C-14.355 32.064 0 17.709 0 0Z" style="stroke-width:15;stroke-linecap:round;stroke-linejoin:round;stroke-miterlimit:10;stroke-dasharray:none;stroke-opacity:1" transform="translate(344.177 151.79)" data-original="#000000"/><path d="M0 0c0-13.281-10.767-24.048-24.049-24.048-13.281 0-24.048 10.767-24.048 24.048 0 13.282 10.767 24.049 24.048 24.049C-10.767 24.049 0 13.282 0 0Z" style="stroke-width:15;stroke-linecap:round;stroke-linejoin:round;stroke-miterlimit:10;stroke-dasharray:none;stroke-opacity:1" transform="translate(183.855 175.838)" data-original="#000000"/><path d="M0 0c0-8.854-7.178-16.032-16.032-16.032-8.855 0-16.032 7.178-16.032 16.032s7.177 16.032 16.032 16.032C-7.178 16.032 0 8.854 0 0Z" style="stroke-width:15;stroke-linecap:round;stroke-linejoin:round;stroke-miterlimit:10;stroke-dasharray:none;stroke-opacity:1" transform="translate(264.016 296.08)" data-original="#000000"/><path d="m0 0 8.016-16.033" style="stroke-width:15;stroke-linecap:round;stroke-linejoin:round;stroke-miterlimit:10;stroke-dasharray:none;stroke-opacity:1" transform="translate(392.274 199.887)" data-original="#000000"/><path d="m0 0 16.032 8.016" style="stroke-width:15;stroke-linecap:round;stroke-linejoin:round;stroke-miterlimit:10;stroke-dasharray:none;stroke-opacity:1" transform="translate(312.113 231.952)" data-original="#000000"/><path d="m0 0 8.016-16.032" style="stroke-width:15;stroke-linecap:round;stroke-linejoin:round;stroke-miterlimit:10;stroke-dasharray:none;stroke-opacity:1" transform="translate(87.661 264.016)" data-original="#000000"/><path d="m0 0 16.032 8.016" style="stroke-width:15;stroke-linecap:round;stroke-linejoin:round;stroke-miterlimit:10;stroke-dasharray:none;stroke-opacity:1" transform="translate(199.887 103.693)" data-original="#000000"/><path d="m0 0 8.016-8.017" style="stroke-width:15;stroke-linecap:round;stroke-linejoin:round;stroke-miterlimit:10;stroke-dasharray:none;stroke-opacity:1" transform="translate(207.903 424.339)" data-original="#000000"/><path d="m0 0 8.016-8.016" style="stroke-width:15;stroke-linecap:round;stroke-linejoin:round;stroke-miterlimit:10;stroke-dasharray:none;stroke-opacity:1" transform="translate(191.871 239.968)" data-original="#000000"/><path d="M0 0v8.016" style="stroke-width:15;stroke-linecap:round;stroke-linejoin:round;stroke-miterlimit:10;stroke-dasharray:none;stroke-opacity:1" transform="translate(288.065 63.613)" data-original="#000000"/><path d="m0 0-8.016-8.016" style="stroke-width:15;stroke-linecap:round;stroke-linejoin:round;stroke-miterlimit:10;stroke-dasharray:none;stroke-opacity:1" transform="translate(247.984 376.242)" data-original="#000000"/><path d="m0 0-2.3-13.799C-4.19-25.14 2.212-36.232 12.977-40.27l20.361-7.635c13.449-5.043 28.291 2.75 31.775 16.684L72.37-2.19c4.524 18.092-12.377 34.225-30.241 28.866l-25.318-7.595A24.049 24.049 0 0 1 0 0Z" style="stroke-width:15;stroke-linecap:round;stroke-linejoin:round;stroke-miterlimit:10;stroke-dasharray:none;stroke-opacity:1" transform="translate(359.226 439.527)" data-original="#000000"/><path d="m0 0-9.681-4.84c-7.593-3.797-10.91-12.853-7.567-20.656l7.789-18.173c4.716-11.003 19.389-13.144 27.052-3.948l12.531 15.036c5.874 7.05 4.644 17.583-2.698 23.089L16.789-1.514A16.03 16.03 0 0 1 0 0Z" style="stroke-width:15;stroke-linecap:round;stroke-linejoin:round;stroke-miterlimit:10;stroke-dasharray:none;stroke-opacity:1" transform="translate(440.371 352.193)" data-original="#000000"/><path d="M0 0c0-8.854-7.178-16.032-16.032-16.032-8.855 0-16.032 7.178-16.032 16.032s7.177 16.032 16.032 16.032C-7.178 16.032 0 8.854 0 0Z" style="stroke-width:15;stroke-linecap:round;stroke-linejoin:round;stroke-miterlimit:10;stroke-dasharray:none;stroke-opacity:1" transform="translate(504.5 400.29)" data-original="#000000"/><path d="M0 0c30.08 34.233 50.931 76.78 58.573 123.778.873 5.367-3.96 9.742-9.339 8.952a78.51 78.51 0 0 0-11.413-.837c-35.704 0-65.923 23.357-76.287 55.617-1.772 5.514-6.276 9.76-11.966 10.844-59.295 11.288-104.134 63.345-104.134 125.926 0 26.284 7.935 50.698 21.506 71.033 3.227 4.835.534 11.275-5.168 12.404-24.109 4.774-49.461 6.086-75.552 3.278-52.081-5.606-99.345-27.582-136.708-60.507" style="stroke-width:15;stroke-linecap:round;stroke-linejoin:round;stroke-miterlimit:10;stroke-dasharray:none;stroke-opacity:1" transform="translate(442.63 92.043)" data-original="#000000"/><path d="M0 0c-35.618-40.516-58.315-92.532-61.563-149.206-8.248-143.881 105.988-263.137 248.079-263.137 62.857 0 120.216 23.376 163.964 61.864" style="stroke-width:15;stroke-linecap:round;stroke-linejoin:round;stroke-miterlimit:10;stroke-dasharray:none;stroke-opacity:1" transform="translate(69.484 419.843)" data-original="#000000"/></g></g></svg>