<svg xmlns="http://www.w3.org/2000/svg" width="512" height="512" viewBox="0 0 64 64" style="enable-background:new 0 0 512 512" xml:space="preserve"><g data-name="4-hand holding plant" fill="#ad7f30"><path d="M30.52 19.51a33 33 0 0 0 5-.68 8.35 8.35 0 0 0 2.57-3.06C38.78 18.38 40.64 20 43 20c4.33 0 9-2.19 9-7a50 50 0 0 1 1-7.8 1 1 0 0 0-.66-1.15c-.35-.11-3.58-1-9.77 2.06A8.29 8.29 0 0 0 38.72 10c-1-3.78-4.84-7-8.72-7C27.56 3 21.49.88 19.36.07A1 1 0 0 0 18 .86c-.06.42-1.42 10.46 4.14 15.67a11.79 11.79 0 0 0 8.38 2.98ZM43.45 7.89a16.39 16.39 0 0 1 7.13-2h.24A45.13 45.13 0 0 0 50 13c0 3.44-3.63 5-7 5a2.65 2.65 0 0 1-.71-.09l4.52-6.33a1 1 0 0 0-1.62-1.16l-4.5 6.29a4.71 4.71 0 0 1-.69-1.53 6.55 6.55 0 0 1 3.45-7.29Zm-23.57-5.5C22.26 3.25 27.45 5 30 5a7.58 7.58 0 0 1 7 7 6.46 6.46 0 0 1-1.91 4.61l-8.35-9.28a1 1 0 1 0-1.48 1.34L33 17.32c-4.12.56-7.32-.19-9.52-2.25-3.71-3.5-3.76-9.97-3.6-12.68Z" data-original="#000000"/><path d="M39 30V20a1 1 0 0 0-2 0v10a1 1 0 0 0 2 0Zm24 10h-1.34a8.24 8.24 0 0 0 .34-2 1 1 0 0 0-1-1h-1.68a9.31 9.31 0 0 0 .68-3 1 1 0 0 0-1-1h-4a1 1 0 0 0-.51.14l-5 3a1 1 0 0 0 1 1.72L55.28 35h2.57c-.09.43-.6 2-.6 2H57a1 1 0 0 0-.51.14l-5 3a1 1 0 0 0 1 1.72L57.28 39h2.57l-.29 1H59a1 1 0 0 0-.51.14l-16.67 9.8L24 46.37a1.2 1.2 0 0 1 .2-2.37H39a4 4 0 0 0 0-8H16.49a7 7 0 0 0-4.95 2L.29 49.29a1 1 0 0 0 1.42 1.42L13 39.46A5 5 0 0 1 16.49 38H39a2 2 0 0 1 0 4H24.2a3.2 3.2 0 0 0-.63 6.33L41.8 52a1 1 0 0 0 .71-.12L59.27 42h2.59c-.33 1.53-1.48 4.54-5.4 7.16l-15.05 9.78a11.05 11.05 0 0 1-9.65 1.15l-11.43-4a1 1 0 0 0-1 .23l-6 6a1 1 0 0 0 0 1.42 1 1 0 0 0 1.42 0l5.55-5.56L31.09 62a13.11 13.11 0 0 0 11.41-1.38l15-9.79c6.43-4.25 6.5-9.6 6.5-9.83a1 1 0 0 0-1-1Z" data-original="#000000"/><path d="M31 30a8.44 8.44 0 0 0-6.83 3.45 1 1 0 0 0 .27 1.38 1 1 0 0 0 1.39-.27 6.51 6.51 0 0 1 10.34 0A1 1 0 0 0 37 35a.94.94 0 0 0 .55-.17 1 1 0 0 0 .28-1.38A8.44 8.44 0 0 0 31 30Zm9 4c3.32 0 5.09 3.42 5.11 3.45A1 1 0 0 0 46 38a.93.93 0 0 0 .45-.11 1 1 0 0 0 .44-1.34C46.8 36.37 44.57 32 40 32a1 1 0 0 0 0 2Zm5.5 6.5a2 2 0 0 1 2 2 1 1 0 0 0 2 0 4 4 0 0 0-4-4 1 1 0 0 0 0 2Z" data-original="#000000"/></g></svg>