<svg xmlns="http://www.w3.org/2000/svg" width="512" height="512" viewBox="0 0 64 64" style="enable-background:new 0 0 512 512" xml:space="preserve"><g fill="#a97b2c"><path d="M58.389 37.076a1 1 0 1 0-.894 1.789 2.513 2.513 0 0 1 1.385 2.38l-.365 6.955a9.291 9.291 0 0 1-9.28 8.8h-7.262a9.311 9.311 0 0 1-8.068-4.682 11.247 11.247 0 0 0-2.961-3.38l-1.79-1.364 15.8-15.8a1 1 0 1 0-1.414-1.414L23.515 50.385a3 3 0 0 1-4.243 0l-5.657-5.657a3.005 3.005 0 0 1 0-4.243l6.521-6.521a1 1 0 1 0-1.414-1.414l-3.9 3.9a31.443 31.443 0 0 1-6.261-7.891 6.007 6.007 0 0 1-.237-5.329l1.652-3.719a8.028 8.028 0 0 0 .5-4.97 6 6 0 0 1 4.491-7.12l4.208-.971a1 1 0 0 0-.45-1.949l-4.208.971a8 8 0 0 0-5.993 9.5 6.012 6.012 0 0 1-.372 3.728L6.5 22.414a8.018 8.018 0 0 0 .317 7.113 33.4 33.4 0 0 0 6.6 8.334l-1.217 1.21a4.979 4.979 0 0 0-1.4 4.225l-2.14 2.139a3 3 0 0 0 0 4.243l-5.487 5.495a4 4 0 0 0 5.654 5.654l5.494-5.494a3.006 3.006 0 0 0 4.243 0L20.7 53.2a4.749 4.749 0 0 0 4.225-1.4l2.8-2.8 2 1.528a9.237 9.237 0 0 1 2.436 2.781A11.318 11.318 0 0 0 41.973 59h7.262a11.291 11.291 0 0 0 11.277-10.7l.365-6.95a4.51 4.51 0 0 0-2.488-4.274zM7.413 59.413a2 2 0 1 1-2.826-2.826l5.494-5.494 2.826 2.826zm9.738-5.493a1 1 0 0 1-1.415 0l-5.656-5.656a1 1 0 0 1 0-1.415l1.485-1.486a4.971 4.971 0 0 0 .636.779l5.657 5.658a5.011 5.011 0 0 0 .778.636z" data-original="#000000"/><path d="M45.707 23.293a1 1 0 0 0-1.414 0l-21 21a1 1 0 1 0 1.414 1.414l21-21a1 1 0 0 0 0-1.414z" data-original="#000000"/><path d="M22.257 31.429a1 1 0 0 0 .707-.293l17.521-17.521a3 3 0 0 1 4.243 0l5.657 5.657a3.005 3.005 0 0 1 0 4.243l-4.021 4.021a1 1 0 1 0 1.414 1.414l3.5-3.5A12.008 12.008 0 0 1 55 34.138v.691a1 1 0 1 0 2 0v-.691a14 14 0 0 0-4.44-10.223 4.987 4.987 0 0 0 .64-3.215l2.14-2.139a3 3 0 0 0 0-4.243l5.494-5.494A4 4 0 1 0 55.18 3.17l-3.343 3.339a1 1 0 1 0 1.414 1.414l3.336-3.336a2 2 0 1 1 2.826 2.826l-5.494 5.494-4.241-4.241a3 3 0 0 0-4.243 0L43.3 10.805a4.978 4.978 0 0 0-4.169 1.351 48.245 48.245 0 0 1-1.909-2.431 7.408 7.408 0 0 0-7.43-2.9 2.494 2.494 0 0 1-1.376-.112L23.32 4.8a1 1 0 0 0-.7 1.873l5.09 1.911a4.512 4.512 0 0 0 2.47.2A5.415 5.415 0 0 1 35.6 10.9a51.423 51.423 0 0 0 2.1 2.669L21.55 29.722a1 1 0 0 0 .707 1.707zM46.849 10.08a1 1 0 0 1 1.415 0l5.656 5.656a1 1 0 0 1 0 1.415l-1.485 1.486a4.971 4.971 0 0 0-.636-.779L46.142 12.2a4.971 4.971 0 0 0-.779-.636z" data-original="#000000"/><circle cx="45" cy="43" r="1" data-original="#000000"/><circle cx="44" cy="48" r="1" data-original="#000000"/><circle cx="48" cy="54" r="1" data-original="#000000"/><circle cx="46" cy="36" r="1" data-original="#000000"/><circle cx="30" cy="16" r="1" data-original="#000000"/><circle cx="25" cy="20" r="1" data-original="#000000"/><circle cx="17" cy="12" r="1" data-original="#000000"/><circle cx="16" cy="18" r="1" data-original="#000000"/><circle cx="12" cy="25" r="1" data-original="#000000"/><circle cx="20" cy="25" r="1" data-original="#000000"/><circle cx="16" cy="30" r="1" data-original="#000000"/><circle cx="23" cy="11" r="1" data-original="#000000"/><circle cx="52" cy="46" r="1" data-original="#000000"/><circle cx="51" cy="37" r="1" data-original="#000000"/><circle cx="37" cy="49" r="1" data-original="#000000"/></g></svg>